<?xml version="1.0" encoding="utf-8"?>
<!-- Generator: Adobe Illustrator 22.1.0, SVG Export Plug-In . SVG Version: 6.00 Build 0)  -->
<svg version="1.1" id="Layer_1" xmlns="http://www.w3.org/2000/svg" xmlns:xlink="http://www.w3.org/1999/xlink" x="0px" y="0px"
	 width="563px" height="606.3px" viewBox="0 0 563 606.3" style="enable-background:new 0 0 563 606.3;" xml:space="preserve">
<style type="text/css">
@keyframes floatcap{
    0%   {transform: translate(0px,0px);}
    50% {transform: translate(-3px,5px);}
	100%   {transform: translate(0px,0px);}
}
@keyframes mymove {
    0%   {fill: #FAC408;}
    25%  {fill: #ecbc15;} 
    75%  {fill: #ecdb15;}
    100% {fill: #FAC408;}
}
#cap{
  
   -webkit-animation: floatcap 2s infinite; /* Safari 4.0 - 8.0 */
   animation: floatcap 2s infinite;
}
.st9 {
   fill:#FAC408;
   -webkit-animation: mymove 5s infinite; /* Safari 4.0 - 8.0 */
   animation: mymove 5s infinite;
}
	.st0{fill:url(#SVGID_1_);}
	.st1{opacity:0.19;}
	.st2{fill:#F57910;}
	.st3{fill:#2C3A45;}
	.st4{fill:#1D262D;}
	.st5{fill:#415666;}
	.st6{opacity:0.49;fill:#788B9C;enable-background:new    ;}
	.st7{fill:#788B9C;}
	.st8{fill:#A5B7C6;}
	 
	.st10{opacity:0.54;fill:#FFE736;enable-background:new    ;}
	.st11{display:none;fill:#FFFFFF;enable-background:new    ;}
	.st12{font-family:'Roboto-Regular';}
	.st13{font-size:218.9046px;}
	.st14{opacity:0.51;fill:#788B9C;enable-background:new    ;}
	.st15{fill:#E3D9D3;}
	.st16{fill:#E86C27;}
	.st17{fill:#D4D3CF;}
	.st18{fill:#43759C;}
	.st19{fill:#E84E27;}
	.st20{fill:#43999C;}
	.st21{fill:#FFFFFF;}
	.st22{fill:#EFD32E;}
	.st23{fill:#202A42;}
	.st24{fill:#3C8A8C;}
	.st25{fill:#FFCE88;}
	.st26{fill:#CF6023;}
</style>
<linearGradient id="SVGID_1_" gradientUnits="userSpaceOnUse" x1="0" y1="324.8" x2="563" y2="324.8">
	<stop  offset="9.914436e-08" style="stop-color:#27FFFF"/>
	<stop  offset="1" style="stop-color:#27BDB9"/>
</linearGradient>
<circle class="st0" cx="281.5" cy="324.8" r="281.5"/>
<g id="OBJECTS">
	<g>
		<path class="st1" d="M474.6,521.3c0.2,6.4-92.8,16.7-183.1,17.9c-102.5,1.3-205.3-9.1-205.2-16c0.1-7.7,128.1-11.2,205.2-11.3
			C354.5,511.8,474.3,514,474.6,521.3z"/>
		<g class="st1">
			<path class="st2" d="M431.3,289.1c-1.2,0-2.2-1-2.2-2.2v-24.6c0-1.2,1-2.2,2.2-2.2s2.2,1,2.2,2.2v24.6
				C433.5,288.1,432.5,289.1,431.3,289.1z"/>
			<path class="st2" d="M443.6,276.8H419c-1.2,0-2.2-1-2.2-2.2s1-2.2,2.2-2.2h24.6c1.2,0,2.2,1,2.2,2.2S444.8,276.8,443.6,276.8z"/>
		</g>
		<g class="st1">
			<path class="st2" d="M120.3,377c-1.2,0-2.2-1-2.2-2.2v-24.6c0-1.2,1-2.2,2.2-2.2s2.2,1,2.2,2.2v24.6
				C122.5,376,121.5,377,120.3,377z"/>
			<path class="st2" d="M132.6,364.7H108c-1.2,0-2.2-1-2.2-2.2s1-2.2,2.2-2.2h24.6c1.2,0,2.2,1,2.2,2.2S133.8,364.7,132.6,364.7z"/>
		</g>
		<g class="st1">
			<path class="st2" d="M125.5,299.9c-0.6,0-1.1-0.2-1.6-0.6c-0.9-0.9-0.9-2.3,0-3.1l17.4-17.4c0.9-0.9,2.3-0.9,3.1,0
				c0.9,0.9,0.9,2.3,0,3.1L127,299.3C126.7,299.7,126.1,299.9,125.5,299.9z"/>
			<path class="st2" d="M142.9,299.9c-0.6,0-1.1-0.2-1.6-0.6l-17.4-17.4c-0.9-0.9-0.9-2.3,0-3.1c0.9-0.9,2.3-0.9,3.1,0l17.4,17.4
				c0.9,0.9,0.9,2.3,0,3.1C144,299.7,143.5,299.9,142.9,299.9z"/>
		</g>
		<g id="cap">
			<polygon class="st3" points="284.9,0 345.5,91.2 457.5,110.9 395.8,17.5 			"/>
			<polygon class="st3" points="284.9,0 283.3,1.6 455.9,112.5 457.5,110.9 			"/>
			<polygon class="st4" points="283.3,1.6 343.9,92.9 455.9,112.5 394.2,19.1 			"/>
			<path class="st3" d="M410.5,84.7l-12.1,19.9l-16.3,26.6l-83.6-54.6c0.7-1.6,11.8-17.1,20.6-29.5c6-8.4,11-15.3,11-15.3
				C367.4,32.2,394.2,49.7,410.5,84.7z"/>
			<path class="st5" d="M347.9,33.4c-5.6-1-11.5-1.6-17.7-1.7c0,0-5,6.9-11,15.3c-8.9,12.4-20,27.9-20.6,29.5l13.8,9
				C323.7,68,335.2,49.9,347.9,33.4z"/>
			<path class="st6" d="M410.5,84.7l-12.1,19.9c0-0.1-0.1-0.3-0.1-0.5c-16.4-54.6-78.9-56.3-78.9-56.3l-0.1-0.8
				c6-8.4,11-15.3,11-15.3C367.4,32.2,394.2,49.7,410.5,84.7z"/>
		</g>
		<g>
			<g>
				<path class="st7" d="M294.3,402.9h-36.4c-6.4,0-11.5-5.2-11.5-11.5v-34.5c0-6.4,5.2-11.5,11.5-11.5h36.4
					c6.4,0,11.5,5.2,11.5,11.5v34.5C305.9,397.7,300.7,402.9,294.3,402.9z"/>
				<path class="st8" d="M308.9,392.8h-65.6c-4.9,0-8.9-4-8.9-8.9V321c0-4.9,4-8.9,8.9-8.9h65.6c4.9,0,8.9,4,8.9,8.9v62.9
					C317.8,388.8,313.9,392.8,308.9,392.8z"/>
				<path class="st9" d="M394.7,182.2c0-67.3-56.1-121.6-124.2-118.4c-60.4,2.8-109.6,51.6-112.8,112
					c-2.7,50.5,26.3,94.5,68.8,114.1v31.4c0,7.8,6.3,14.2,14.2,14.2h70.8c7.8,0,14.2-6.3,14.2-14.2v-31.4
					C366.4,271.1,394.7,230,394.7,182.2z"/>
			</g>
			<path class="st10" d="M318.4,294.7v26.6c0,0-1.2,7.4-11.9,7.4c-10.7,0-26.2,0-26.2,0S310.2,321.3,318.4,294.7z"/>
			<path class="st10" d="M322.6,85.1c-52.9-24.6-115.8-1.7-140.4,51.3C225.6,99.4,272.7,84,322.6,85.1"/>
			<text transform="matrix(1 0 0 1 226.9688 268.3547)" class="st11 st12 st13">?</text>
		</g>
		<g>
			<rect x="237.9" y="340.6" class="st7" width="73.9" height="1.4"/>
			<rect x="237.9" y="345.5" class="st7" width="73.9" height="1.4"/>
			<rect x="237.9" y="350.4" class="st7" width="73.9" height="1.4"/>
			<rect x="237.9" y="355.3" class="st7" width="73.9" height="1.4"/>
			<rect x="237.9" y="360.3" class="st7" width="73.9" height="1.4"/>
			<rect x="237.9" y="365.2" class="st7" width="73.9" height="1.4"/>
			<rect x="237.9" y="370.1" class="st7" width="73.9" height="1.4"/>
			<rect x="237.9" y="375" class="st7" width="73.9" height="1.4"/>
			<rect x="237.9" y="379.9" class="st7" width="73.9" height="1.4"/>
			<rect x="237.9" y="384.8" class="st7" width="73.9" height="1.4"/>
		</g>
		<path class="st14" d="M311.8,341.7v35.5l0,0c0,0.1-0.5,9.3-11.1,9.3h-14.9c-0.2,0-0.3-0.1-0.3-0.3v-44.1c0-0.1,0.1-0.3,0.3-0.3
			l25.7-0.4C311.7,341.4,311.8,341.5,311.8,341.7z"/>
		<g>
			<g>
				<path class="st15" d="M384.8,437.4H237.2c-1.1,0-1.9-0.9-1.9-1.9v-32c0-1.1,0.9-1.9,1.9-1.9h147.7c1.1,0,1.9,0.9,1.9,1.9v32
					C386.8,436.5,385.9,437.4,384.8,437.4z"/>
				<path class="st16" d="M387.2,407.2H241.4c-1.6,0-2.9-1.3-2.9-2.9l0,0c0-1.6,1.3-2.9,2.9-2.9h145.8c1.6,0,2.9,1.3,2.9,2.9l0,0
					C390.1,405.9,388.8,407.2,387.2,407.2z"/>
				<path class="st16" d="M387.2,431.8H241.4c-1.6,0-2.9-1.3-2.9-2.9l0,0c0-1.6,1.3-2.9,2.9-2.9h145.8c1.6,0,2.9,1.3,2.9,2.9l0,0
					C390.1,430.5,388.8,431.8,387.2,431.8z"/>
				<path class="st17" d="M413.3,525.8H207.9c-1.1,0-1.9-0.9-1.9-1.9v-32c0-1.1,0.9-1.9,1.9-1.9h205.5c1.1,0,1.9,0.9,1.9,1.9v32
					C415.3,524.9,414.4,525.8,413.3,525.8z"/>
				<path class="st18" d="M417.5,493.8h-211c-0.3,0-0.6-0.2-0.6-0.6v-2.8c0-0.3,0.2-0.6,0.6-0.6h211c0.3,0,0.6,0.2,0.6,0.6v2.8
					C418.1,493.6,417.9,493.8,417.5,493.8z"/>
				<path class="st18" d="M417.5,525.5h-211c-0.3,0-0.6-0.2-0.6-0.6v-2.8c0-0.3,0.2-0.6,0.6-0.6h211c0.3,0,0.6,0.2,0.6,0.6v2.8
					C418.1,525.3,417.9,525.5,417.5,525.5z"/>
				<path class="st15" d="M399.5,458.1H222c-1.1,0-1.9-0.9-1.9-1.9v-16.8c0-1.1,0.9-1.9,1.9-1.9h177.5c1.1,0,1.9,0.9,1.9,1.9v16.8
					C401.4,457.2,400.6,458.1,399.5,458.1z"/>
				<path class="st19" d="M402.4,440.6h-180c-0.4,0-0.7-0.3-0.7-0.7v-1.8c0-0.4,0.3-0.7,0.7-0.7h180c0.4,0,0.7,0.3,0.7,0.7v1.8
					C403.1,440.3,402.8,440.6,402.4,440.6z"/>
				<path class="st19" d="M402.4,458h-180c-0.4,0-0.7-0.3-0.7-0.7v-1.8c0-0.4,0.3-0.7,0.7-0.7h180c0.4,0,0.7,0.3,0.7,0.7v1.8
					C403.1,457.7,402.8,458,402.4,458z"/>
				<path class="st17" d="M398.6,431.6H224.4c-0.3,0-0.5,0.2-0.5,0.5v4.7c0,0.3,0.2,0.5,0.5,0.5h174.1c0.3,0,0.5-0.2,0.5-0.5v-4.7
					C399.1,431.9,398.9,431.6,398.6,431.6z"/>
				<path class="st15" d="M402.7,489.9H226.6c-1.1,0-1.9-0.9-1.9-1.9v-24.4c0-1.1,0.9-1.9,1.9-1.9h176.1c1.1,0,1.9,0.9,1.9,1.9V488
					C404.6,489,403.8,489.9,402.7,489.9z"/>
				<path class="st20" d="M404.1,489.9H227.5c-1.6,0-2.9-1.3-2.9-2.9l0,0c0-1.6,1.3-2.9,2.9-2.9h176.6c1.6,0,2.9,1.3,2.9,2.9l0,0
					C407,488.6,405.7,489.9,404.1,489.9z"/>
				<path class="st20" d="M404.1,463.8H227.5c-1.6,0-2.9-1.3-2.9-2.9l0,0c0-1.6,1.3-2.9,2.9-2.9h176.6c1.6,0,2.9,1.3,2.9,2.9l0,0
					C407,462.5,405.7,463.8,404.1,463.8z"/>
			</g>
			<g>
				<path class="st16" d="M313.1,437.4H165.5c-1.1,0-1.9-0.9-1.9-1.9v-32c0-1.1,0.9-1.9,1.9-1.9h147.7c1.1,0,1.9,0.9,1.9,1.9v32
					C315.1,436.5,314.2,437.4,313.1,437.4z"/>
				<path class="st18" d="M344.5,525.8H136.2c-1.1,0-1.9-0.9-1.9-1.9v-32c0-1.1,0.9-1.9,1.9-1.9h208.3c1.1,0,1.9,0.9,1.9,1.9v32
					C346.4,524.9,345.5,525.8,344.5,525.8z"/>
				<path class="st19" d="M327.8,458.1H150.3c-1.1,0-1.9-0.9-1.9-1.9v-16.8c0-1.1,0.9-1.9,1.9-1.9h177.5c1.1,0,1.9,0.9,1.9,1.9v16.8
					C329.7,457.2,328.9,458.1,327.8,458.1z"/>
				<path class="st20" d="M326.4,431.6H153.2c-0.6,0-1,0.4-1,1v3.7c0,0.6,0.4,1,1,1h173.1c0.6,0,1-0.4,1-1v-3.7
					C327.4,432.1,326.9,431.6,326.4,431.6z"/>
				<path class="st20" d="M333.3,489.9H154.9c-1.1,0-1.9-0.9-1.9-1.9v-27.9c0-1.1,0.9-1.9,1.9-1.9h178.5c1.1,0,1.9,0.9,1.9,1.9V488
					C335.3,489,334.4,489.9,333.3,489.9z"/>
				<rect x="159.8" y="437.5" class="st16" width="8.4" height="20.3"/>
				<rect x="167" y="457.8" class="st21" width="18" height="32"/>
				<rect x="194.5" y="463.5" class="st21" width="1.4" height="21.3"/>
				<rect x="152" y="508.2" class="st21" width="153.8" height="4.1"/>
				<rect x="175.3" y="442.7" class="st21" width="1.4" height="8.2"/>
				<rect x="167.7" y="431.5" class="st22" width="4.1" height="5.7"/>
				<rect x="177.3" y="401.8" class="st22" width="4.1" height="29.2"/>
			</g>
			<rect x="194" y="415.3" class="st21" width="97.5" height="4.1"/>
		</g>
		<g>
			<g>
				<path class="st23" d="M444.3,456.1l-10.1,2.5l-9.6,12.3l14.3,3.7c0,0,10.1,2.3,10.3-2.6C449.3,470.1,448.1,463.2,444.3,456.1z"
					/>
			</g>
			<path class="st24" d="M439.3,445.9c-2.3,1.6-4.6,2.9-7.2,4c-2.5,1.1-5.2,1.8-8.1,1.9c-0.7,0-1.5-0.1-2.2-0.2
				c-0.7-0.2-1.5-0.3-2.1-0.5c-1.2-0.4-2.5-0.9-3.7-1.4c-2.4-1-4.7-2.1-7-3.6c-0.4-0.2-0.5-0.8-0.2-1.1c0.2-0.3,0.7-0.5,1-0.3h0.1
				c2.1,1.1,4.5,1.9,6.9,2.6c1.2,0.3,2.4,0.6,3.6,0.9c0.6,0.2,1.1,0.2,1.7,0.2c0.5,0,1.1,0,1.6-0.1c2.2-0.3,4.3-1.2,6.4-2.4
				c2-1.1,4-2.6,5.7-4.1h0.1c1.1-1,2.8-0.9,3.8,0.2s0.9,2.8-0.2,3.8C439.5,445.8,439.4,445.8,439.3,445.9z"/>
			<g>
				<path class="st20" d="M446,448.1c-0.3-2.2-0.3-4.4-0.2-6.6c-0.2,0-0.5,0-0.7,0c-1.2-0.3-1.8-1.8-1.2-2.8l0,0c0,0,0,0,0-0.1
					l-2.4,0.2c0,0-7.4,5-8.1,8.8c-0.5,2.8,0.2,7.6,0.5,9.9c2.1-0.4,4.4-0.6,6.5-0.6l0,0c0.1-0.5,0.2-0.9,0.4-1.4
					c0.4-0.8,1.2-1.7,2.1-1.9c0.5-0.1,1,0.1,1.4,0.4c0.4-0.2,0.8-0.2,1.1-0.1l1-4.7C446.3,448.8,446.1,448.5,446,448.1z"/>
			</g>
			<g>
				<rect x="440.7" y="426.3" class="st25" width="4.3" height="16.4"/>
			</g>
			<path class="st25" d="M436.2,425.2c-1.1,4.2-0.2,8.1,4,9.2s8.5-1.4,9.6-5.6s-1.4-8.5-5.6-9.6S437.3,421,436.2,425.2z"/>
			<path class="st23" d="M440.2,433.8c0,0,6.1-8.8,5.7-8.9c-2-0.5-10.1-2.6-10.1-2.6s3.9-8,14.1-2.4c6.3,3.5,7.3,13.1,3.9,16.4
				C451.7,438.3,440.2,433.8,440.2,433.8z"/>
			<path class="st23" d="M433.6,472.4l-25.2-6.6l2.7-2.5l1.5,24.9c0,0.4-0.3,0.8-0.7,0.8c-0.4,0-0.7-0.2-0.8-0.6l-4.5-24.5
				c-0.2-1.2,0.6-2.3,1.7-2.5c0.3,0,0.5,0,0.8,0h0.2l25.6,4.4c1.8,0.3,3.1,2.1,2.8,3.9c-0.3,1.8-2.1,3.1-3.9,2.8
				C433.8,472.5,433.7,472.4,433.6,472.4z"/>
			<path class="st23" d="M445.1,469v3.7c0,1.3,0,2.4,0.1,3.6l0.1,7.1l0.3,14.8l-0.2-1l10.3,26.1c0.2,0.4,0,0.9-0.5,1.1
				c-0.4,0.2-0.8,0-1-0.4l-13.5-24.7c-0.1-0.2-0.2-0.5-0.2-0.7v-0.2l-1.2-14.8l-0.5-7.7l-0.5-7.5c-0.1-1.9,1.3-3.5,3.2-3.6
				c1.9-0.1,3.5,1.3,3.6,3.2c0,0.1,0,0.1,0,0.2L445.1,469z"/>
			<path class="st20" d="M448.5,440.1c2,3.2,3.9,6.4,5.6,9.8c0.9,1.7,1.7,3.4,2.3,5.4c0.2,0.5,0.3,1,0.4,1.6s0.2,1.3-0.1,2.4
				c-0.2,0.5-0.7,1.2-1.3,1.6c-0.5,0.2-0.8,0.3-1.2,0.4c-0.7,0.1-1.2,0.1-1.7,0.1c-4-0.1-7.5-0.9-11.2-1.6
				c-3.6-0.7-7.2-1.5-10.8-2.4c-0.4-0.1-0.7-0.5-0.6-1c0.1-0.4,0.5-0.7,0.9-0.6c3.6,0.5,7.3,1,10.9,1.4c3.6,0.3,7.3,0.7,10.7,0.5
				c0.3-0.1,0.8-0.1,1-0.2c0,0,0.2-0.1,0.1,0c-0.3,0.1-0.5,0.4-0.5,0.5c-0.1,0.2,0,0-0.1-0.3s-0.2-0.7-0.4-1c-0.6-1.5-1.5-3-2.4-4.5
				c-1.9-3-4-6-6.2-8.8l0,0c-1-1.3-0.7-3.1,0.5-4s3.1-0.7,4,0.5C448.4,440,448.5,440,448.5,440.1z"/>
			<path class="st20" d="M442.9,438.5c2.8,0,5.7,1.5,5.7,6.2s-4.4,11.3-4.4,11.3H436l2.4-14L442.9,438.5z"/>
			<path class="st24" d="M445.9,438.8l-0.9-1.9l-3.5,1.5c0,0-1.6,3.4-1.4,3.4C440.1,441.6,445.9,438.8,445.9,438.8z"/>
			<polygon class="st24" points="440.6,438.2 439.5,438.3 437.3,441.5 438.3,441.2 440.6,439.3 			"/>
			<polygon class="st20" points="444.3,456.1 434.2,458.5 433.6,454.4 445.4,454.1 			"/>
			<path class="st20" d="M413.7,489.6c0-0.4-0.4-6.3-0.4-6.3l-5.5-0.1l2.3,4.9c0,0-1.9,0.4-2,1.5S413.7,489.6,413.7,489.6z"/>
			<path class="st20" d="M456.4,522.5c0,0-1-4.1-1.4-4s-5.5,1.9-5.5,1.9l4.5,5.2c0,0-2.3,0.5-2.5,1.5c-0.1,1,5.3,0,5.3,0
				L456.4,522.5z"/>
			<path class="st25" d="M431.3,455.9l-0.2,1.8l-4.2,0.4c0,0-0.6-4,1.2-3.6C429.9,455,431.3,455.9,431.3,455.9z"/>
			<path class="st25" d="M409.1,446c-0.7,0.1-4-2.2-4-2.2s1-3.9,3-2.8c1.9,1.1,1.9,3.6,1.9,3.6L409.1,446z"/>
			<path class="st25" d="M436.2,425.2c-0.4,0.4-2.8,1.7-2.8,1.7l3.2,2l1-3.6L436.2,425.2z"/>
		</g>
		<g>
			<path class="st26" d="M209.8,356.7c1.8,1.6,3.5,2.9,5.4,4s4,1.8,6.1,1.9c0.5,0,1.1-0.1,1.7-0.2c0.5-0.2,1.1-0.3,1.6-0.5
				c0.9-0.4,1.9-0.9,2.8-1.4c1.8-1,3.6-2.1,5.3-3.6c0.3-0.3,0.4-0.8,0.2-1.1c-0.2-0.3-0.5-0.5-0.8-0.3l0,0c-1.6,1.1-3.4,1.9-5.2,2.6
				c-0.9,0.3-1.8,0.6-2.7,0.9c-0.5,0.2-0.9,0.2-1.3,0.2c-0.4,0-0.8,0-1.2-0.1c-1.6-0.3-3.3-1.2-4.8-2.3c-1.5-1.1-3.1-2.6-4.3-4.1
				l0,0c-0.8-1-2.1-0.9-2.9,0.2C208.9,354,209,355.7,209.8,356.7C209.6,356.6,209.7,356.6,209.8,356.7z"/>
			<g>
				<path class="st16" d="M205,360c0.3-2.2,0.3-4.4,0.2-6.6c0.2,0,0.5,0,0.7,0c1.2-0.3,1.8-1.8,1.2-2.8l0,0c0,0,0,0,0-0.1l2.4,0.2
					c0,0,4.2,1.8,4.8,5.5c0.5,2.8,3.1,10.9,2.8,13.1c-2.1-0.4-4.4-0.6-6.5-0.6l0,0c-0.1-0.5-0.2-0.9-0.4-1.4
					c-0.4-0.8-1.2-1.7-2.1-1.9c-0.5-0.1-1,0.1-1.4,0.4c-0.4-0.2-0.8-0.2-1.2-0.1l-1-4.7C204.7,360.7,204.9,360.4,205,360z"/>
			</g>
			<g>
				<rect x="206" y="338.2" class="st25" width="4.3" height="16.4"/>
			</g>
			<path class="st25" d="M214.8,337.1c1.1,4.2,0.2,8.1-4,9.2s-8.5-1.4-9.6-5.6s1.4-8.5,5.6-9.6C211,330,213.7,333,214.8,337.1z"/>
			<path class="st23" d="M211.9,389.2c0.2-0.3,8.3-6.5,8.3-6.5l-1.9-1l-6.7-4.3l-3.3,5.5l3.8,5.8"/>
			<path class="st23" d="M210.7,377.7l25.6-4.4h0.2c1.2-0.2,2.3,0.6,2.5,1.8c0,0.3,0,0.5,0,0.8l-4.5,24.5c-0.1,0.4-0.5,0.7-0.9,0.6
				s-0.6-0.4-0.6-0.8l1.5-24.9l2.7,2.5l-25.2,6.6c-1.8,0.5-3.7-0.6-4.1-2.4c-0.5-1.8,0.6-3.7,2.4-4.1
				C210.5,377.7,210.6,377.7,210.7,377.7z"/>
			<path class="st23" d="M212.7,380.2c0,0.4,0,1.9-0.1,2.3l-0.1,1.8l-0.3,3.6l-0.6,7.2l-1.2,14.4v0.2c0,0.3-0.1,0.5-0.2,0.8
				l-13.5,23.9c-0.2,0.4-0.7,0.5-1.1,0.3c-0.4-0.2-0.5-0.6-0.4-1l10.3-25.4l-0.3,1l0.3-14.4l0.1-7.2l0.1-3.6v-1.8c0-0.8,0-0.5,0-1.3
				v-0.6c-0.1-1.9,1.4-3.4,3.2-3.5c1.9-0.1,3.4,1.4,3.5,3.2C212.7,380.1,212.7,380.2,212.7,380.2z"/>
			<path class="st16" d="M204.5,351.8c-2,3.2-3.9,6.4-5.6,9.8c-0.8,1.7-1.7,3.4-2.3,5.4c-0.2,0.5-0.3,1-0.4,1.6
				c-0.1,0.6-0.2,1.3,0.1,2.4c0.2,0.5,0.7,1.2,1.3,1.6c0.5,0.2,0.8,0.3,1.2,0.4c0.7,0.1,1.2,0.1,1.7,0.1c4-0.1,7.5-0.9,11.2-1.6
				c3.6-0.7,7.2-1.5,10.8-2.4c0.4-0.1,0.7-0.5,0.6-1c-0.1-0.4-0.5-0.7-0.9-0.6c-3.6,0.5-7.3,1-10.9,1.4c-3.6,0.3-7.3,0.7-10.7,0.5
				c-0.3-0.1-0.8-0.1-1-0.2c0,0-0.2-0.1-0.1,0c0.3,0.1,0.5,0.4,0.5,0.5c0.1,0.2,0,0,0.1-0.3s0.2-0.6,0.4-1c0.6-1.5,1.5-3,2.4-4.5
				c1.9-3,4-6,6.2-8.8l0,0c1-1.3,0.7-3.1-0.5-4c-1.3-1-3.1-0.7-4,0.5C204.6,351.7,204.6,351.8,204.5,351.8z"/>
			<path class="st16" d="M208.1,350.4c-2.8,0-5.7,1.5-5.7,6.2s4.4,11.3,4.4,11.3h8.2l-2.4-14L208.1,350.4z"/>
			<path class="st19" d="M235.5,400l0.1-0.2c-1.2,0-2.4,0-3.6,0.1c-0.1,0.9-0.1,1.5-0.1,1.7c0,0,5.7,1.1,5.6,0
				C237.4,400.4,235.5,400,235.5,400z"/>
			<path class="st19" d="M196.9,435.8l0.4-0.5c-1-0.2-1.9-0.5-2.9-0.8h-0.1l-0.3,2.7c0,0,5.5,0.9,5.3,0
				C199.2,436.3,196.9,435.8,196.9,435.8z"/>
			<path class="st25" d="M221.8,367.6l0.2,1.8l4.2,0.4c0,0,0.6-4-1.2-3.6C223.1,366.7,221.8,367.6,221.8,367.6z"/>
			<path class="st25" d="M232.6,356.8c0.5,0.1,3-2.2,3-2.2s-0.8-3.9-2.2-2.8c-1.5,1.1-1.4,3.6-1.4,3.6L232.6,356.8z"/>
			<path class="st25" d="M214.8,337.3c0.4,0.4,2.8,1.7,2.8,1.7l-3.2,2.1l-1-3.6L214.8,337.3z"/>
			<path class="st23" d="M200.6,333.5c0,0,4.5-4.5,10.2-3.4s1.8,5.5-0.3,7.2c-2,1.8-7.1,7.4-7.1,7.4S195.3,338.8,200.6,333.5z"/>
			<path class="st23" d="M205.8,346.1c0.3,0.1,0.7-10.5,0.7-10.5l-6.8,4.7C199.8,340.3,201.1,344.4,205.8,346.1z"/>
			<path class="st16" d="M203.1,359.5c0.1,0.2,0.5,19.4,0.5,19.4s5.3,0.5,10-0.2s6.7-2.6,6.7-2.6l-4.5-13.4L203.1,359.5z"/>
			<polygon class="st16" points="205.7,350.7 205.9,348.5 210.8,349.3 210.7,353.5 206.2,351.9 			"/>
		</g>
	</g>
</g>
</svg>
